<svg id="Fund_loan_button" data-name="Fund loan button" xmlns="http://www.w3.org/2000/svg" width="209" height="54" viewBox="0 0 209 54">
  <rect id="Rectangle_3" data-name="Rectangle 3" width="209" height="54" rx="10" fill="#1f7a1f"/>
  <text id="Fund_loan" data-name="Fund loan" transform="translate(45 34)" fill="#f5f5f5" font-size="18" font-family="SofiaPro, Sofia Pro"><tspan x="0" y="0">Fund loan</tspan></text>
  <g id="vuesax_bold_money-send" data-name="vuesax/bold/money-send" transform="translate(169.321 15)">
    <g id="money-send">
      <path id="Vector" d="M0,0H24V24H0Z" fill="none" opacity="0"/>
      <path id="Vector-2" data-name="Vector" d="M0,.78c0,.54.15.62.49.74L1,1.7V0H.7A.748.748,0,0,0,0,.78Z" transform="translate(10.25 9.25)" fill="#f5f5f5"/>
      <path id="Vector-3" data-name="Vector" d="M0,1.7H.3A.742.742,0,0,0,1,.92C1,.38.85.3.51.18L0,0Z" transform="translate(12.75 13.05)" fill="#f5f5f5"/>
      <path id="Vector-4" data-name="Vector" d="M17.58,3.48,15.53,5.53a.748.748,0,0,1-1.06,0,.754.754,0,0,1,0-1.06l2.05-2.05a10,10,0,1,0,1.06,1.06ZM11.75,9.82a2.051,2.051,0,0,1,1.5,2.16,2.25,2.25,0,0,1-2.2,2.28h-.3v.25a.75.75,0,0,1-1.5,0v-.25H9.17a2.466,2.466,0,0,1-2.42-2.5.75.75,0,1,1,1.5-.01.963.963,0,0,0,.92,1h.08V10.53l-1-.35a2.051,2.051,0,0,1-1.5-2.16,2.25,2.25,0,0,1,2.2-2.28h.3V5.5a.75.75,0,0,1,1.5,0v.25h.08a2.466,2.466,0,0,1,2.42,2.5.75.75,0,0,1-1.5,0,.963.963,0,0,0-.92-1h-.08V9.47Z" transform="translate(2 2)" fill="#f5f5f5"/>
      <path id="Vector-5" data-name="Vector" d="M5.44.46A.782.782,0,0,0,5.03.05.868.868,0,0,0,4.75,0h-4A.755.755,0,0,0,0,.75a.755.755,0,0,0,.75.75H2.94L1.27,3.17A10.607,10.607,0,0,1,2.33,4.23L4,2.56V4.75a.75.75,0,0,0,1.5,0v-4A.753.753,0,0,0,5.44.46Z" transform="translate(17.25 1.25)" fill="#f5f5f5"/>
    </g>
  </g>
</svg>
