<svg xmlns="http://www.w3.org/2000/svg" width="18.499" height="18.499" viewBox="0 0 18.499 18.499">
  <path id="instagram-alt" d="M11.249,8.955a2.294,2.294,0,1,0,2.294,2.294A2.294,2.294,0,0,0,11.249,8.955Zm9.185-2.266a6.04,6.04,0,0,0-.388-2.09A3.7,3.7,0,0,0,17.9,2.453a6.04,6.04,0,0,0-2.09-.388C14.616,2,14.265,2,11.249,2s-3.367,0-4.56.065a6.04,6.04,0,0,0-2.09.388A3.7,3.7,0,0,0,2.453,4.6a6.04,6.04,0,0,0-.388,2.09C2,7.883,2,8.234,2,11.249s0,3.367.065,4.56a6.345,6.345,0,0,0,.388,2.1A3.644,3.644,0,0,0,3.295,19.2a3.6,3.6,0,0,0,1.3.842,6.04,6.04,0,0,0,2.09.388c1.193.065,1.545.065,4.56.065s3.367,0,4.56-.065a6.04,6.04,0,0,0,2.09-.388,3.6,3.6,0,0,0,1.3-.842,3.644,3.644,0,0,0,.842-1.295,6.1,6.1,0,0,0,.388-2.1c.065-1.193.065-1.545.065-4.56S20.5,7.883,20.434,6.689Zm-2.349,7.4a5.3,5.3,0,0,1-.361,1.665,3.57,3.57,0,0,1-1.97,1.97,5.3,5.3,0,0,1-1.674.324H8.419a5.3,5.3,0,0,1-1.674-.324,3.443,3.443,0,0,1-1.97-1.97A5.078,5.078,0,0,1,4.46,14.08c0-.731,0-.925,0-2.83V8.419a5.078,5.078,0,0,1,.314-1.674,3.246,3.246,0,0,1,.8-1.212,3.32,3.32,0,0,1,1.175-.758,5.3,5.3,0,0,1,1.674-.324H14.08a5.3,5.3,0,0,1,1.674.324,3.443,3.443,0,0,1,1.97,1.97,5.3,5.3,0,0,1,.324,1.674c0,.731,0,.925,0,2.83s.065,2.1.037,2.83ZM16.6,7.207a2.2,2.2,0,0,0-1.3-1.3,3.7,3.7,0,0,0-1.276-.2H8.474A3.7,3.7,0,0,0,7.2,5.94,2.2,2.2,0,0,0,5.894,7.2,3.949,3.949,0,0,0,5.7,8.474v5.55A3.949,3.949,0,0,0,5.94,15.3a2.2,2.2,0,0,0,1.3,1.3,3.949,3.949,0,0,0,1.23.24h5.55A3.7,3.7,0,0,0,15.3,16.6a2.2,2.2,0,0,0,1.3-1.3,3.7,3.7,0,0,0,.24-1.276V8.474A3.5,3.5,0,0,0,16.6,7.2Zm-5.355,7.575a3.524,3.524,0,0,1-3.524-3.533h0a3.533,3.533,0,1,1,3.524,3.533Zm3.7-6.373a.832.832,0,0,1,0-1.656h0a.832.832,0,0,1,0,1.656Z" transform="translate(-2 -2)" fill="#369"/>
</svg>
