<svg id="Linkein_icon" data-name="Linkein icon" xmlns="http://www.w3.org/2000/svg" width="19.547" height="18.5" viewBox="0 0 19.547 18.5">
  <path id="linkedin" d="M37.637,40.9V33.22a2.034,2.034,0,0,0-1.955-1.536c-1.536.07-2.024.314-2.723,1.152V40.9H29.016V28.718h3.909V30.5a4.339,4.339,0,0,1,3.909-2.3c2.408.175,4.223,1.641,4.607,4.852h.1V40.9Zm-13.3-13.752a2.374,2.374,0,1,1,2.339-2.374A2.346,2.346,0,0,1,24.339,27.147ZM26.293,40.9H22.384V28.718h3.909Z" transform="translate(-22 -22.4)" fill="#369"/>
</svg>
