<svg id="Twitter_icon" data-name="Twitter icon" xmlns="http://www.w3.org/2000/svg" width="20.303" height="16.5" viewBox="0 0 20.303 16.5">
  <path id="_367607_twitter_social_icon" data-name="367607_twitter_social_icon" d="M64.224,89.448c.008.178.012.358.012.538A11.846,11.846,0,0,1,46,99.967a8.482,8.482,0,0,0,.994.059,8.358,8.358,0,0,0,5.173-1.783,4.169,4.169,0,0,1-3.891-2.892,4.179,4.179,0,0,0,1.881-.072,4.167,4.167,0,0,1-3.341-4.084v-.053a4.151,4.151,0,0,0,1.887.521A4.17,4.17,0,0,1,47.413,86.1,11.827,11.827,0,0,0,56,90.454a4.168,4.168,0,0,1,7.1-3.8,8.351,8.351,0,0,0,2.645-1.011,4.18,4.18,0,0,1-1.831,2.3,8.317,8.317,0,0,0,2.392-.656A8.466,8.466,0,0,1,64.224,89.448Z" transform="translate(-46 -85.339)" fill="#369"/>
</svg>
