<svg id="YT_icon" data-name="YT icon" xmlns="http://www.w3.org/2000/svg" width="20.953" height="15.718" viewBox="0 0 20.953 15.718">
  <path id="Path_17" data-name="Path 17" d="M20.811,67.471a3.182,3.182,0,0,0-3.029-3.323C15.514,64.041,13.2,64,10.84,64H10.1c-2.358,0-4.674.041-6.942.147A3.189,3.189,0,0,0,.137,67.479c-.1,1.457-.147,2.914-.143,4.371s.041,2.914.139,4.375a3.192,3.192,0,0,0,3.025,3.336c2.382.111,4.826.16,7.31.156s4.924-.041,7.31-.156a3.193,3.193,0,0,0,3.029-3.336c.1-1.461.143-2.918.139-4.379S20.909,68.932,20.811,67.471ZM8.466,75.865V67.823L14.4,71.842Z" transform="translate(0.006 -64)" fill="#369"/>
</svg>
